<?xml version="1.0" standalone="no"?>
<!DOCTYPE svg PUBLIC "-//W3C//DTD SVG 20010904//EN"
 "http://www.w3.org/TR/2001/REC-SVG-20010904/DTD/svg10.dtd">
<svg version="1.0" xmlns="http://www.w3.org/2000/svg"
 width="252.000000pt" height="200.000000pt" viewBox="0 0 252.000000 200.000000"
 preserveAspectRatio="xMidYMid meet">
<metadata>
Created by potrace 1.16, written by Peter Selinger 2001-2019
</metadata>
<g transform="translate(0.000000,200.000000) scale(0.100000,-0.100000)"
fill="#000000" stroke="none">
<path d="M1043 1866 c-41 -19 -64 -65 -71 -141 -5 -73 20 -143 63 -171 40 -26
113 -29 155 -6 87 48 107 195 37 270 -47 50 -130 72 -184 48z"/>
<path d="M514 1609 c-41 -11 -48 -21 -148 -183 -89 -145 -103 -189 -73 -229 6
-9 57 -43 111 -75 l100 -57 0 -54 c1 -41 6 -57 23 -70 11 -10 116 -71 232
-135 l211 -118 0 -248 0 -248 31 -26 c33 -28 53 -32 93 -16 51 19 56 48 56
305 0 129 2 235 5 235 16 0 413 -235 409 -242 -10 -16 -84 -48 -136 -59 -83
-18 -124 -44 -162 -102 -36 -54 -75 -152 -65 -162 3 -3 240 -4 527 -3 l521 3
-183 317 c-100 174 -184 320 -187 323 -13 12 -132 -89 -187 -159 l-60 -74
-203 119 c-112 65 -207 120 -211 121 -5 2 -53 171 -108 376 -62 233 -107 384
-120 403 -40 55 -65 61 -264 64 -100 1 -195 -2 -212 -6z m159 -281 c-41 -73
-82 -143 -90 -156 l-14 -23 -61 33 c-33 18 -62 38 -65 45 -3 7 25 62 62 123
l66 110 89 0 89 0 -76 -132z m308 -283 c22 -81 38 -149 36 -151 -4 -4 -174 90
-189 104 -4 4 18 51 48 105 31 54 58 96 60 94 3 -2 23 -71 45 -152z"/>
<path d="M532 793 c15 -90 16 -110 5 -132 -8 -14 -71 -107 -141 -206 -120
-170 -127 -182 -122 -219 8 -70 71 -101 128 -64 26 17 284 381 307 432 9 21
12 55 9 105 -6 85 -4 82 -126 148 l-79 43 19 -107z"/>
</g>
</svg>
