<?xml version="1.0" standalone="no"?>
<!DOCTYPE svg PUBLIC "-//W3C//DTD SVG 20010904//EN"
 "http://www.w3.org/TR/2001/REC-SVG-20010904/DTD/svg10.dtd">
<svg version="1.0" xmlns="http://www.w3.org/2000/svg"
 width="700.000000pt" height="700.000000pt" viewBox="0 0 700.000000 700.000000"
 preserveAspectRatio="xMidYMid meet">
<metadata>
Created by potrace 1.11, written by Peter Selinger 2001-2013
</metadata>
<g transform="translate(0.000000,700.000000) scale(0.100000,-0.100000)"
fill="#000000" stroke="none">
<path d="M3150 6298 c-6 -18 -47 -134 -90 -258 -100 -289 -97 -283 -112 -274
-15 9 -199 139 -213 151 -66 54 -330 223 -347 223 -9 0 -4 -67 8 -130 10 -52
12 -67 19 -120 4 -30 9 -64 11 -75 4 -20 6 -29 19 -128 7 -47 6 -49 -16 -42
-12 4 -72 40 -133 80 -135 88 -223 138 -235 133 -5 -1 11 -37 36 -78 25 -41
69 -127 99 -190 61 -128 70 -148 103 -235 24 -61 33 -67 79 -51 23 8 72 29
109 46 205 95 472 181 643 205 25 3 56 8 70 10 169 26 591 26 690 0 8 -2 35
-6 60 -9 48 -6 51 -7 179 -32 89 -18 99 -15 102 31 5 95 59 337 105 478 14 43
23 81 20 84 -11 12 -94 -65 -280 -262 -59 -61 -63 -57 -70 86 -7 124 -17 266
-21 294 -1 11 -3 32 -4 48 -2 58 -38 30 -216 -168 -132 -148 -262 -278 -273
-274 -6 2 -69 96 -139 209 -161 257 -176 280 -185 280 -3 0 -11 -15 -18 -32z"/>
<path d="M3516 5443 c-1 -1 -55 -4 -121 -8 -66 -3 -138 -8 -160 -11 -57 -7
-170 -27 -225 -39 -14 -4 -34 -8 -45 -10 -108 -23 -410 -134 -474 -174 -23
-15 -23 -15 25 -29 56 -16 113 -53 172 -113 45 -45 78 -97 67 -107 -3 -3 -27
2 -53 12 -110 42 -228 51 -298 21 -163 -68 -214 -310 -120 -567 13 -38 21 -68
17 -68 -4 0 -24 12 -43 28 -131 100 -194 302 -154 494 20 98 20 101 -2 89 -51
-27 -297 -259 -367 -347 -22 -27 -48 -58 -58 -69 -21 -23 -186 -259 -203 -290
-84 -152 -84 -157 -19 -169 94 -15 151 -29 159 -36 5 -5 -24 -60 -71 -132 -82
-126 -203 -354 -203 -382 0 -9 -3 -16 -8 -16 -8 0 -8 0 -76 -195 -43 -123 -94
-340 -99 -422 -3 -49 5 -49 148 -5 160 48 239 72 244 72 3 0 -2 -63 -16 -205
-14 -140 -7 -553 13 -710 10 -82 54 -274 84 -366 23 -71 71 -182 86 -198 10
-11 200 166 319 299 71 78 179 212 257 315 92 122 104 134 123 114 15 -16 41
-128 60 -269 14 -97 13 -525 -1 -620 -3 -25 -18 -123 -33 -217 l-28 -173 21
-19 c26 -24 167 -90 256 -120 222 -73 605 -86 876 -31 61 13 268 79 339 108
50 21 210 100 294 146 35 19 70 32 77 29 13 -5 17 -17 46 -123 15 -57 13 -49
22 -90 17 -76 13 -73 54 -49 84 50 315 269 443 419 143 167 265 409 334 665
30 109 29 104 45 210 18 117 17 115 55 69 83 -100 165 -174 165 -149 0 3 12
44 26 92 28 92 50 184 59 243 3 19 8 41 10 48 10 28 20 236 20 392 -1 305 -19
422 -97 655 -87 261 -260 603 -373 742 l-21 25 -2 -34 c-3 -48 -13 -88 -21
-88 -7 0 -57 52 -134 139 l-39 43 36 37 36 37 -35 72 c-49 102 -68 106 -174
40 -49 -31 -73 -35 -89 -15 -16 18 -142 81 -149 73 -24 -24 134 -207 372 -429
l70 -66 -35 4 c-19 3 -57 9 -83 14 -63 11 -308 6 -372 -8 -119 -27 -105 -31
-186 51 -162 163 -269 287 -269 312 0 6 16 44 35 85 19 40 35 75 35 77 0 2
-10 4 -22 4 -22 -1 -81 -27 -145 -65 l-31 -19 -117 58 c-172 86 -234 106 -293
94 -92 -20 -292 -128 -307 -166 -8 -21 0 -28 71 -68 115 -64 144 -69 501 -88
35 -2 53 -12 105 -56 107 -91 278 -270 278 -291 0 -7 -60 4 -78 15 -12 7 -176
14 -452 17 -112 1 -224 6 -248 11 -128 23 -284 146 -347 270 -19 39 -35 83
-35 99 0 32 -17 44 -75 53 -75 11 -95 18 -95 30 0 29 154 153 252 202 37 19
68 40 68 46 0 7 -19 29 -42 50 l-43 38 35 31 c122 107 502 259 652 260 61 1
138 -36 345 -168 89 -57 169 -103 177 -103 13 0 41 60 60 130 16 57 29 72 58
66 66 -13 473 -297 552 -385 43 -48 42 -14 -2 94 -29 71 -68 200 -76 248 -9
55 -23 84 -58 117 -47 45 -179 131 -274 178 -84 42 -372 145 -384 137 -4 -2 3
-41 16 -86 26 -87 30 -129 14 -129 -6 0 -30 19 -53 43 -59 59 -142 127 -210
175 -43 30 -72 42 -110 47 -49 6 -227 12 -231 8z m879 -1709 c184 -96 200
-104 213 -104 11 0 13 -28 8 -142 -2 -79 -5 -153 -5 -165 -1 -36 -249 -216
-411 -299 -140 -71 -253 -96 -286 -62 -26 26 -254 453 -254 475 0 4 17 19 38
33 20 14 39 27 42 30 3 3 45 32 95 64 164 107 384 211 455 215 9 1 56 -20 105
-45z m643 1 c12 -26 40 -128 49 -179 3 -17 7 -107 9 -201 3 -175 -5 -248 -40
-330 l-17 -39 -36 59 c-39 67 -71 109 -153 205 l-56 66 1 147 c1 81 6 151 11
156 16 14 208 141 215 141 3 0 11 -11 17 -25z m-221 -783 c13 -15 37 -54 55
-87 29 -53 32 -69 32 -140 1 -68 -4 -91 -32 -157 -53 -123 -217 -337 -240
-313 -6 6 -13 48 -16 95 -16 213 -28 238 -94 191 -54 -37 -270 -141 -294 -141
-12 0 -39 36 -77 103 -102 181 -102 181 -59 197 118 44 237 108 351 192 82 59
128 77 222 85 38 3 72 7 73 8 12 11 61 -10 79 -33z"/>
</g>
</svg>
